<?xml version="1.0" encoding="UTF-8" standalone="no"?>
<!DOCTYPE svg PUBLIC "-//W3C//DTD SVG 1.1//EN"
 "http://www.w3.org/Graphics/SVG/1.1/DTD/svg11.dtd">
<!-- Generated by graphviz version 15.1.1 (20260805.0921)
 -->
<!-- Title: schema Pages: 1 -->
<svg width="934pt" height="775pt"
 viewBox="0.00 0.00 934.00 775.00" xmlns="http://www.w3.org/2000/svg" xmlns:xlink="http://www.w3.org/1999/xlink">
<g id="graph0" class="graph" transform="scale(1 1) rotate(0) translate(4 771)">
<title>schema</title>
<polygon fill="white" stroke="none" points="-4,4 -4,-771 929.5,-771 929.5,4 -4,4"/>
<g id="clust1" class="cluster">
<title>cluster_location</title>
<path fill="none" stroke="#9ca3af" stroke-dasharray="5,2" d="M279.62,-8C279.62,-8 905.5,-8 905.5,-8 911.5,-8 917.5,-14 917.5,-20 917.5,-20 917.5,-70 917.5,-70 917.5,-76 911.5,-82 905.5,-82 905.5,-82 279.63,-82 279.63,-82 273.62,-82 267.62,-76 267.62,-70 267.62,-70 267.62,-20 267.62,-20 267.62,-14 273.62,-8 279.62,-8"/>
<text xml:space="preserve" text-anchor="middle" x="592.56" y="-65.65" font-family="Helvetica,sans-Serif" font-size="13.00">location</text>
</g>
<g id="clust2" class="cluster">
<title>cluster_breeding</title>
<path fill="none" stroke="#9ca3af" stroke-dasharray="5,2" d="M278,-345C278,-345 539.5,-345 539.5,-345 545.5,-345 551.5,-351 551.5,-357 551.5,-357 551.5,-407 551.5,-407 551.5,-413 545.5,-419 539.5,-419 539.5,-419 278,-419 278,-419 272,-419 266,-413 266,-407 266,-407 266,-357 266,-357 266,-351 272,-345 278,-345"/>
<text xml:space="preserve" text-anchor="middle" x="408.75" y="-402.65" font-family="Helvetica,sans-Serif" font-size="13.00">breeding</text>
</g>
<g id="clust3" class="cluster">
<title>cluster_mouse</title>
<path fill="none" stroke="#9ca3af" stroke-dasharray="5,2" d="M20,-90C20,-90 337.75,-90 337.75,-90 343.75,-90 349.75,-96 349.75,-102 349.75,-102 349.75,-274 349.75,-274 349.75,-280 343.75,-286 337.75,-286 337.75,-286 20,-286 20,-286 14,-286 8,-280 8,-274 8,-274 8,-102 8,-102 8,-96 14,-90 20,-90"/>
<text xml:space="preserve" text-anchor="middle" x="178.88" y="-269.65" font-family="Helvetica,sans-Serif" font-size="13.00">mouse</text>
</g>
<g id="clust4" class="cluster">
<title>cluster_work</title>
<path fill="none" stroke="#9ca3af" stroke-dasharray="5,2" d="M43.25,-427C43.25,-427 325.62,-427 325.62,-427 331.62,-427 337.62,-433 337.62,-439 337.62,-439 337.62,-604 337.62,-604 337.62,-610 331.62,-616 325.62,-616 325.62,-616 43.25,-616 43.25,-616 37.25,-616 31.25,-610 31.25,-604 31.25,-604 31.25,-439 31.25,-439 31.25,-433 37.25,-427 43.25,-427"/>
<text xml:space="preserve" text-anchor="middle" x="184.44" y="-599.65" font-family="Helvetica,sans-Serif" font-size="13.00">work</text>
</g>
<g id="clust5" class="cluster">
<title>cluster_people</title>
<path fill="none" stroke="#9ca3af" stroke-dasharray="5,2" d="M24.5,-624C24.5,-624 325.62,-624 325.62,-624 331.62,-624 337.62,-630 337.62,-636 337.62,-636 337.62,-747 337.62,-747 337.62,-753 331.62,-759 325.62,-759 325.62,-759 24.5,-759 24.5,-759 18.5,-759 12.5,-753 12.5,-747 12.5,-747 12.5,-636 12.5,-636 12.5,-630 18.5,-624 24.5,-624"/>
<text xml:space="preserve" text-anchor="middle" x="175.06" y="-742.65" font-family="Helvetica,sans-Serif" font-size="13.00">people</text>
</g>
<!-- colonies -->
<g id="node1" class="node">
<title>colonies</title>
<path fill="#dbeafe" stroke="black" d="M897.5,-52C897.5,-52 866.5,-52 866.5,-52 860.5,-52 854.5,-46 854.5,-40 854.5,-40 854.5,-28 854.5,-28 854.5,-22 860.5,-16 866.5,-16 866.5,-16 897.5,-16 897.5,-16 903.5,-16 909.5,-22 909.5,-28 909.5,-28 909.5,-40 909.5,-40 909.5,-46 903.5,-52 897.5,-52"/>
<text xml:space="preserve" text-anchor="middle" x="882" y="-35.55" font-family="Helvetica,sans-Serif" font-size="11.00">colonies</text>
<text xml:space="preserve" text-anchor="middle" x="882" y="-23.55" font-family="Helvetica,sans-Serif" font-size="11.00">(5 cols)</text>
</g>
<!-- subcolonies -->
<g id="node2" class="node">
<title>subcolonies</title>
<path fill="#dbeafe" stroke="black" d="M729.5,-52C729.5,-52 681.25,-52 681.25,-52 675.25,-52 669.25,-46 669.25,-40 669.25,-40 669.25,-28 669.25,-28 669.25,-22 675.25,-16 681.25,-16 681.25,-16 729.5,-16 729.5,-16 735.5,-16 741.5,-22 741.5,-28 741.5,-28 741.5,-40 741.5,-40 741.5,-46 735.5,-52 729.5,-52"/>
<text xml:space="preserve" text-anchor="middle" x="705.38" y="-35.55" font-family="Helvetica,sans-Serif" font-size="11.00">subcolonies</text>
<text xml:space="preserve" text-anchor="middle" x="705.38" y="-23.55" font-family="Helvetica,sans-Serif" font-size="11.00">(6 cols)</text>
</g>
<!-- subcolonies&#45;&gt;colonies -->
<g id="edge20" class="edge">
<title>subcolonies&#45;&gt;colonies</title>
<path fill="none" stroke="#6b7280" d="M741.71,-34C772.14,-34 815.8,-34 846.1,-34"/>
<polygon fill="#6b7280" stroke="#6b7280" points="845.76,-36.45 852.76,-34 845.76,-31.55 845.76,-36.45"/>
<text xml:space="preserve" text-anchor="middle" x="798" y="-35.4" font-family="Helvetica,sans-Serif" font-size="8.00">colony_id</text>
</g>
<!-- cages -->
<g id="node3" class="node">
<title>cages</title>
<path fill="#dbeafe" stroke="black" d="M531.5,-52C531.5,-52 498.25,-52 498.25,-52 492.25,-52 486.25,-46 486.25,-40 486.25,-40 486.25,-28 486.25,-28 486.25,-22 492.25,-16 498.25,-16 498.25,-16 531.5,-16 531.5,-16 537.5,-16 543.5,-22 543.5,-28 543.5,-28 543.5,-40 543.5,-40 543.5,-46 537.5,-52 531.5,-52"/>
<text xml:space="preserve" text-anchor="middle" x="514.88" y="-35.55" font-family="Helvetica,sans-Serif" font-size="11.00">cages</text>
<text xml:space="preserve" text-anchor="middle" x="514.88" y="-23.55" font-family="Helvetica,sans-Serif" font-size="11.00">(11 cols)</text>
</g>
<!-- cages&#45;&gt;subcolonies -->
<g id="edge1" class="edge">
<title>cages&#45;&gt;subcolonies</title>
<path fill="none" stroke="#6b7280" d="M543.69,-34C574.5,-34 624.59,-34 660.66,-34"/>
<polygon fill="#6b7280" stroke="#6b7280" points="660.53,-36.45 667.53,-34 660.53,-31.55 660.53,-36.45"/>
<text xml:space="preserve" text-anchor="middle" x="606.38" y="-35.4" font-family="Helvetica,sans-Serif" font-size="8.00">subcolony_id</text>
</g>
<!-- slots -->
<g id="node4" class="node">
<title>slots</title>
<path fill="#dbeafe" stroke="black" d="M317.62,-52C317.62,-52 287.62,-52 287.62,-52 281.62,-52 275.62,-46 275.62,-40 275.62,-40 275.62,-28 275.62,-28 275.62,-22 281.62,-16 287.62,-16 287.62,-16 317.62,-16 317.62,-16 323.62,-16 329.62,-22 329.62,-28 329.62,-28 329.62,-40 329.62,-40 329.62,-46 323.62,-52 317.62,-52"/>
<text xml:space="preserve" text-anchor="middle" x="302.62" y="-35.55" font-family="Helvetica,sans-Serif" font-size="11.00">slots</text>
<text xml:space="preserve" text-anchor="middle" x="302.62" y="-23.55" font-family="Helvetica,sans-Serif" font-size="11.00">(9 cols)</text>
</g>
<!-- slots&#45;&gt;cages -->
<g id="edge19" class="edge">
<title>slots&#45;&gt;cages</title>
<path fill="none" stroke="#6b7280" d="M329.83,-34C367.11,-34 435.6,-34 477.69,-34"/>
<polygon fill="#6b7280" stroke="#6b7280" points="477.49,-36.45 484.49,-34 477.49,-31.55 477.49,-36.45"/>
<text xml:space="preserve" text-anchor="middle" x="414" y="-35.4" font-family="Helvetica,sans-Serif" font-size="8.00">cage_id</text>
</g>
<!-- mates -->
<g id="node5" class="node">
<title>mates</title>
<path fill="#fce7f3" stroke="black" d="M531.5,-389C531.5,-389 498.25,-389 498.25,-389 492.25,-389 486.25,-383 486.25,-377 486.25,-377 486.25,-365 486.25,-365 486.25,-359 492.25,-353 498.25,-353 498.25,-353 531.5,-353 531.5,-353 537.5,-353 543.5,-359 543.5,-365 543.5,-365 543.5,-377 543.5,-377 543.5,-383 537.5,-389 531.5,-389"/>
<text xml:space="preserve" text-anchor="middle" x="514.88" y="-372.55" font-family="Helvetica,sans-Serif" font-size="11.00">mates</text>
<text xml:space="preserve" text-anchor="middle" x="514.88" y="-360.55" font-family="Helvetica,sans-Serif" font-size="11.00">(16 cols)</text>
</g>
<!-- mouse_meta -->
<g id="node7" class="node">
<title>mouse_meta</title>
<path fill="#dcfce7" stroke="black" d="M329.75,-256C329.75,-256 275.5,-256 275.5,-256 269.5,-256 263.5,-250 263.5,-244 263.5,-244 263.5,-232 263.5,-232 263.5,-226 269.5,-220 275.5,-220 275.5,-220 329.75,-220 329.75,-220 335.75,-220 341.75,-226 341.75,-232 341.75,-232 341.75,-244 341.75,-244 341.75,-250 335.75,-256 329.75,-256"/>
<text xml:space="preserve" text-anchor="middle" x="302.62" y="-239.55" font-family="Helvetica,sans-Serif" font-size="11.00">mouse_meta</text>
<text xml:space="preserve" text-anchor="middle" x="302.62" y="-227.55" font-family="Helvetica,sans-Serif" font-size="11.00">(15 cols)</text>
</g>
<!-- mates&#45;&gt;mouse_meta -->
<g id="edge4" class="edge">
<title>mates&#45;&gt;mouse_meta</title>
<path fill="none" stroke="#6b7280" d="M485.89,-353.3C448.32,-329.53 381.5,-287.26 340.04,-261.04"/>
<polygon fill="#6b7280" stroke="#6b7280" points="341.36,-258.97 334.14,-257.3 338.74,-263.11 341.36,-258.97"/>
<text xml:space="preserve" text-anchor="middle" x="414" y="-329.38" font-family="Helvetica,sans-Serif" font-size="8.00">father_mouse_id</text>
</g>
<!-- mates&#45;&gt;mouse_meta -->
<g id="edge5" class="edge">
<title>mates&#45;&gt;mouse_meta</title>
<path fill="none" stroke="#6b7280" d="M506.01,-352.62C495.6,-330.53 475.13,-293.95 446.25,-274 417.92,-254.43 379.87,-245.49 350.2,-241.41"/>
<polygon fill="#6b7280" stroke="#6b7280" points="350.82,-239.02 343.57,-240.57 350.21,-243.88 350.82,-239.02"/>
<text xml:space="preserve" text-anchor="middle" x="414" y="-275.4" font-family="Helvetica,sans-Serif" font-size="8.00">mother_mouse_id</text>
</g>
<!-- litters -->
<g id="node6" class="node">
<title>litters</title>
<path fill="#fce7f3" stroke="black" d="M319.25,-389C319.25,-389 286,-389 286,-389 280,-389 274,-383 274,-377 274,-377 274,-365 274,-365 274,-359 280,-353 286,-353 286,-353 319.25,-353 319.25,-353 325.25,-353 331.25,-359 331.25,-365 331.25,-365 331.25,-377 331.25,-377 331.25,-383 325.25,-389 319.25,-389"/>
<text xml:space="preserve" text-anchor="middle" x="302.62" y="-372.55" font-family="Helvetica,sans-Serif" font-size="11.00">litters</text>
<text xml:space="preserve" text-anchor="middle" x="302.62" y="-360.55" font-family="Helvetica,sans-Serif" font-size="11.00">(20 cols)</text>
</g>
<!-- litters&#45;&gt;mates -->
<g id="edge3" class="edge">
<title>litters&#45;&gt;mates</title>
<path fill="none" stroke="#6b7280" d="M331.54,-371C369.09,-371 435.91,-371 477.39,-371"/>
<polygon fill="#6b7280" stroke="#6b7280" points="477.33,-373.45 484.33,-371 477.33,-368.55 477.33,-373.45"/>
<text xml:space="preserve" text-anchor="middle" x="414" y="-372.4" font-family="Helvetica,sans-Serif" font-size="8.00">mate_id</text>
</g>
<!-- mouse_meta&#45;&gt;subcolonies -->
<g id="edge14" class="edge">
<title>mouse_meta&#45;&gt;subcolonies</title>
<path fill="none" stroke="#6b7280" d="M339.9,-219.54C413.9,-181.86 582,-96.29 661.37,-55.89"/>
<polygon fill="#6b7280" stroke="#6b7280" points="662.29,-58.17 667.41,-52.82 660.06,-53.81 662.29,-58.17"/>
<text xml:space="preserve" text-anchor="middle" x="514.88" y="-144.2" font-family="Helvetica,sans-Serif" font-size="8.00">subcolony_id</text>
</g>
<!-- mouse_meta&#45;&gt;litters -->
<g id="edge12" class="edge">
<title>mouse_meta&#45;&gt;litters</title>
<path fill="none" stroke="#6b7280" d="M263.25,-243.08C239.48,-248.39 210.98,-259.27 196.04,-281.5 173.3,-315.34 226.85,-343.46 266,-358.69"/>
<polygon fill="#6b7280" stroke="#6b7280" points="264.78,-360.85 272.19,-361.03 266.51,-356.27 264.78,-360.85"/>
<text xml:space="preserve" text-anchor="middle" x="191.62" y="-282.9" font-family="Helvetica,sans-Serif" font-size="8.00">litter_id</text>
</g>
<!-- mouse_meta&#45;&gt;litters -->
<g id="edge13" class="edge">
<title>mouse_meta&#45;&gt;litters</title>
<path fill="none" stroke="#6b7280" d="M263.25,-243.08C239.48,-248.39 210.98,-259.27 196.04,-281.5 173.3,-315.34 226.85,-343.46 266,-358.69"/>
<polygon fill="#6b7280" stroke="#6b7280" points="264.78,-360.85 272.19,-361.03 266.51,-356.27 264.78,-360.85"/>
<text xml:space="preserve" text-anchor="middle" x="191.62" y="-282.9" font-family="Helvetica,sans-Serif" font-size="8.00">litter_id</text>
</g>
<!-- mice -->
<g id="node8" class="node">
<title>mice</title>
<path fill="#dcfce7" stroke="black" d="M84.5,-134C84.5,-134 51.25,-134 51.25,-134 45.25,-134 39.25,-128 39.25,-122 39.25,-122 39.25,-110 39.25,-110 39.25,-104 45.25,-98 51.25,-98 51.25,-98 84.5,-98 84.5,-98 90.5,-98 96.5,-104 96.5,-110 96.5,-110 96.5,-122 96.5,-122 96.5,-128 90.5,-134 84.5,-134"/>
<text xml:space="preserve" text-anchor="middle" x="67.88" y="-117.55" font-family="Helvetica,sans-Serif" font-size="11.00">mice</text>
<text xml:space="preserve" text-anchor="middle" x="67.88" y="-105.55" font-family="Helvetica,sans-Serif" font-size="11.00">(20 cols)</text>
</g>
<!-- mice&#45;&gt;cages -->
<g id="edge6" class="edge">
<title>mice&#45;&gt;cages</title>
<path fill="none" stroke="#6b7280" d="M96.86,-111.97C127.87,-107.43 179.34,-99.69 223.5,-92 322.83,-74.71 347.52,-69.47 446.25,-49 456.46,-46.88 467.51,-44.48 477.67,-42.22"/>
<polygon fill="#6b7280" stroke="#6b7280" points="478.17,-44.62 484.47,-40.71 477.1,-39.84 478.17,-44.62"/>
<text xml:space="preserve" text-anchor="middle" x="302.62" y="-86.1" font-family="Helvetica,sans-Serif" font-size="8.00">cage_id</text>
</g>
<!-- mice&#45;&gt;slots -->
<g id="edge8" class="edge">
<title>mice&#45;&gt;slots</title>
<path fill="none" stroke="#6b7280" d="M84.07,-97.65C100.54,-79.27 128.68,-52.03 159.75,-40 194.38,-26.59 237.38,-26.89 266.91,-29.4"/>
<polygon fill="#6b7280" stroke="#6b7280" points="266.53,-31.82 273.73,-30.05 266.99,-26.95 266.53,-31.82"/>
<text xml:space="preserve" text-anchor="middle" x="191.62" y="-41.4" font-family="Helvetica,sans-Serif" font-size="8.00">slot_id</text>
</g>
<!-- mice&#45;&gt;slots -->
<g id="edge9" class="edge">
<title>mice&#45;&gt;slots</title>
<path fill="none" stroke="#6b7280" d="M96.99,-104.77C114.88,-97.73 138.58,-88.58 159.75,-81 196.37,-67.89 238.75,-54.02 267.59,-44.77"/>
<polygon fill="#6b7280" stroke="#6b7280" points="267.99,-47.22 273.91,-42.75 266.49,-42.55 267.99,-47.22"/>
<text xml:space="preserve" text-anchor="middle" x="191.62" y="-82.4" font-family="Helvetica,sans-Serif" font-size="8.00">slot_id</text>
</g>
<!-- mice&#45;&gt;mouse_meta -->
<g id="edge7" class="edge">
<title>mice&#45;&gt;mouse_meta</title>
<path fill="none" stroke="#6b7280" d="M96.85,-127.37C128.3,-140.48 180.57,-163.3 223.5,-187 238.72,-195.4 254.9,-205.72 268.57,-214.87"/>
<polygon fill="#6b7280" stroke="#6b7280" points="267.04,-216.8 274.22,-218.69 269.79,-212.74 267.04,-216.8"/>
<text xml:space="preserve" text-anchor="middle" x="191.62" y="-188.4" font-family="Helvetica,sans-Serif" font-size="8.00">mouse_meta_id</text>
</g>
<!-- mouse_genotypes -->
<g id="node9" class="node">
<title>mouse_genotypes</title>
<path fill="#dcfce7" stroke="black" d="M107.75,-195C107.75,-195 28,-195 28,-195 22,-195 16,-189 16,-183 16,-183 16,-171 16,-171 16,-165 22,-159 28,-159 28,-159 107.75,-159 107.75,-159 113.75,-159 119.75,-165 119.75,-171 119.75,-171 119.75,-183 119.75,-183 119.75,-189 113.75,-195 107.75,-195"/>
<text xml:space="preserve" text-anchor="middle" x="67.88" y="-178.55" font-family="Helvetica,sans-Serif" font-size="11.00">mouse_genotypes</text>
<text xml:space="preserve" text-anchor="middle" x="67.88" y="-166.55" font-family="Helvetica,sans-Serif" font-size="11.00">(10 cols)</text>
</g>
<!-- mouse_genotypes&#45;&gt;mouse_meta -->
<g id="edge11" class="edge">
<title>mouse_genotypes&#45;&gt;mouse_meta</title>
<path fill="none" stroke="#6b7280" d="M120.24,-190.46C160.49,-201.01 216,-215.56 254.98,-225.78"/>
<polygon fill="#6b7280" stroke="#6b7280" points="254.18,-228.1 261.57,-227.5 255.42,-223.36 254.18,-228.1"/>
<text xml:space="preserve" text-anchor="middle" x="191.62" y="-217.93" font-family="Helvetica,sans-Serif" font-size="8.00">mouse_id</text>
</g>
<!-- mouse_events -->
<g id="node10" class="node">
<title>mouse_events</title>
<path fill="#dcfce7" stroke="black" d="M98.75,-256C98.75,-256 37,-256 37,-256 31,-256 25,-250 25,-244 25,-244 25,-232 25,-232 25,-226 31,-220 37,-220 37,-220 98.75,-220 98.75,-220 104.75,-220 110.75,-226 110.75,-232 110.75,-232 110.75,-244 110.75,-244 110.75,-250 104.75,-256 98.75,-256"/>
<text xml:space="preserve" text-anchor="middle" x="67.88" y="-239.55" font-family="Helvetica,sans-Serif" font-size="11.00">mouse_events</text>
<text xml:space="preserve" text-anchor="middle" x="67.88" y="-227.55" font-family="Helvetica,sans-Serif" font-size="11.00">(12 cols)</text>
</g>
<!-- mouse_events&#45;&gt;mouse_meta -->
<g id="edge10" class="edge">
<title>mouse_events&#45;&gt;mouse_meta</title>
<path fill="none" stroke="#6b7280" d="M111.02,-238C151.59,-238 212.81,-238 254.86,-238"/>
<polygon fill="#6b7280" stroke="#6b7280" points="254.75,-240.45 261.75,-238 254.75,-235.55 254.75,-240.45"/>
<text xml:space="preserve" text-anchor="middle" x="191.62" y="-239.4" font-family="Helvetica,sans-Serif" font-size="8.00">mouse_id</text>
</g>
<!-- tasks -->
<g id="node11" class="node">
<title>tasks</title>
<path fill="#fef3c7" stroke="black" d="M84.5,-471C84.5,-471 51.25,-471 51.25,-471 45.25,-471 39.25,-465 39.25,-459 39.25,-459 39.25,-447 39.25,-447 39.25,-441 45.25,-435 51.25,-435 51.25,-435 84.5,-435 84.5,-435 90.5,-435 96.5,-441 96.5,-447 96.5,-447 96.5,-459 96.5,-459 96.5,-465 90.5,-471 84.5,-471"/>
<text xml:space="preserve" text-anchor="middle" x="67.88" y="-454.55" font-family="Helvetica,sans-Serif" font-size="11.00">tasks</text>
<text xml:space="preserve" text-anchor="middle" x="67.88" y="-442.55" font-family="Helvetica,sans-Serif" font-size="11.00">(20 cols)</text>
</g>
<!-- tasks&#45;&gt;cages -->
<g id="edge23" class="edge">
<title>tasks&#45;&gt;cages</title>
<path fill="none" stroke="#6b7280" d="M93.51,-434.68C111.54,-421.51 136.77,-403.58 159.75,-389 204.54,-360.58 213.4,-347.42 263.5,-330 341.11,-303.02 386.73,-358.65 446.25,-302 510.65,-240.7 461.35,-191.35 486.25,-106 490.79,-90.42 497.23,-73.45 502.74,-59.9"/>
<polygon fill="#6b7280" stroke="#6b7280" points="504.88,-61.16 505.29,-53.76 500.35,-59.29 504.88,-61.16"/>
<text xml:space="preserve" text-anchor="middle" x="302.62" y="-331.4" font-family="Helvetica,sans-Serif" font-size="8.00">subject_cage_id</text>
</g>
<!-- tasks&#45;&gt;litters -->
<g id="edge21" class="edge">
<title>tasks&#45;&gt;litters</title>
<path fill="none" stroke="#6b7280" d="M96.9,-440.92C114.75,-433.39 138.44,-423.7 159.75,-416 195.36,-403.13 236.69,-390.25 265.52,-381.59"/>
<polygon fill="#6b7280" stroke="#6b7280" points="266.22,-383.93 272.23,-379.58 264.82,-379.24 266.22,-383.93"/>
<text xml:space="preserve" text-anchor="middle" x="191.62" y="-417.4" font-family="Helvetica,sans-Serif" font-size="8.00">litter_id</text>
</g>
<!-- tasks&#45;&gt;mouse_meta -->
<g id="edge24" class="edge">
<title>tasks&#45;&gt;mouse_meta</title>
<path fill="none" stroke="#6b7280" d="M79.34,-434.58C94.37,-409.49 124.21,-364.45 159.75,-336 184.19,-316.43 197.27,-323.11 223.5,-306 243,-293.28 262.77,-276.03 277.54,-262.08"/>
<polygon fill="#6b7280" stroke="#6b7280" points="279.09,-263.99 282.45,-257.38 275.7,-260.45 279.09,-263.99"/>
<text xml:space="preserve" text-anchor="middle" x="191.62" y="-337.4" font-family="Helvetica,sans-Serif" font-size="8.00">subject_mouse_id</text>
</g>
<!-- tasks&#45;&gt;tasks -->
<g id="edge22" class="edge">
<title>tasks&#45;&gt;tasks</title>
<path fill="none" stroke="#6b7280" d="M46.94,-471.12C40.59,-483.65 47.57,-496 67.88,-496 83.74,-496 91.47,-488.46 91.06,-479.19"/>
<polygon fill="#6b7280" stroke="#6b7280" points="93.46,-478.66 89.22,-472.57 88.74,-479.97 93.46,-478.66"/>
<text xml:space="preserve" text-anchor="middle" x="67.88" y="-497.4" font-family="Helvetica,sans-Serif" font-size="8.00">origin_task_id</text>
</g>
<!-- notes -->
<g id="node12" class="node">
<title>notes</title>
<path fill="#fef3c7" stroke="black" d="M84.5,-559C84.5,-559 51.25,-559 51.25,-559 45.25,-559 39.25,-553 39.25,-547 39.25,-547 39.25,-535 39.25,-535 39.25,-529 45.25,-523 51.25,-523 51.25,-523 84.5,-523 84.5,-523 90.5,-523 96.5,-529 96.5,-535 96.5,-535 96.5,-547 96.5,-547 96.5,-553 90.5,-559 84.5,-559"/>
<text xml:space="preserve" text-anchor="middle" x="67.88" y="-542.55" font-family="Helvetica,sans-Serif" font-size="11.00">notes</text>
<text xml:space="preserve" text-anchor="middle" x="67.88" y="-530.55" font-family="Helvetica,sans-Serif" font-size="11.00">(12 cols)</text>
</g>
<!-- notes&#45;&gt;litters -->
<g id="edge15" class="edge">
<title>notes&#45;&gt;litters</title>
<path fill="none" stroke="#6b7280" d="M96.75,-532.91C129.51,-522.43 184.35,-501.78 223.5,-471 227.21,-468.08 260.92,-424.31 282.83,-395.65"/>
<polygon fill="#6b7280" stroke="#6b7280" points="284.63,-397.34 286.94,-390.29 280.74,-394.36 284.63,-397.34"/>
<text xml:space="preserve" text-anchor="middle" x="191.62" y="-510.02" font-family="Helvetica,sans-Serif" font-size="8.00">litter_id</text>
</g>
<!-- notes&#45;&gt;mouse_meta -->
<g id="edge18" class="edge">
<title>notes&#45;&gt;mouse_meta</title>
<path fill="none" stroke="#6b7280" d="M96.92,-527.15C104.75,-522.59 112.97,-517.11 119.75,-511 141.95,-491.02 136.65,-475.93 159.75,-457 183.97,-437.15 203.19,-450.84 223.5,-427 265.19,-378.06 234.63,-345.44 263.5,-288 267.94,-279.16 274.02,-270.31 280.01,-262.57"/>
<polygon fill="#6b7280" stroke="#6b7280" points="281.58,-264.53 284.05,-257.54 277.76,-261.47 281.58,-264.53"/>
<text xml:space="preserve" text-anchor="middle" x="191.62" y="-458.4" font-family="Helvetica,sans-Serif" font-size="8.00">subject_mouse_id</text>
</g>
<!-- notes&#45;&gt;notes -->
<g id="edge16" class="edge">
<title>notes&#45;&gt;notes</title>
<path fill="none" stroke="#6b7280" d="M46.94,-559.12C40.59,-571.65 47.57,-584 67.88,-584 83.74,-584 91.47,-576.46 91.06,-567.19"/>
<polygon fill="#6b7280" stroke="#6b7280" points="93.46,-566.66 89.22,-560.57 88.74,-567.97 93.46,-566.66"/>
<text xml:space="preserve" text-anchor="middle" x="67.88" y="-585.4" font-family="Helvetica,sans-Serif" font-size="8.00">origin_note_id</text>
</g>
<!-- signals -->
<g id="node13" class="node">
<title>signals</title>
<path fill="#fef3c7" stroke="black" d="M317.62,-559C317.62,-559 287.62,-559 287.62,-559 281.62,-559 275.62,-553 275.62,-547 275.62,-547 275.62,-535 275.62,-535 275.62,-529 281.62,-523 287.62,-523 287.62,-523 317.62,-523 317.62,-523 323.62,-523 329.62,-529 329.62,-535 329.62,-535 329.62,-547 329.62,-547 329.62,-553 323.62,-559 317.62,-559"/>
<text xml:space="preserve" text-anchor="middle" x="302.62" y="-542.55" font-family="Helvetica,sans-Serif" font-size="11.00">signals</text>
<text xml:space="preserve" text-anchor="middle" x="302.62" y="-530.55" font-family="Helvetica,sans-Serif" font-size="11.00">(6 cols)</text>
</g>
<!-- notes&#45;&gt;signals -->
<g id="edge17" class="edge">
<title>notes&#45;&gt;signals</title>
<path fill="none" stroke="#6b7280" d="M96.95,-541C139.55,-541 220.43,-541 266.74,-541"/>
<polygon fill="#6b7280" stroke="#6b7280" points="266.73,-543.45 273.73,-541 266.73,-538.55 266.73,-543.45"/>
<text xml:space="preserve" text-anchor="middle" x="191.62" y="-542.4" font-family="Helvetica,sans-Serif" font-size="8.00">signal_id</text>
</g>
<!-- users -->
<g id="node14" class="node">
<title>users</title>
<path fill="#fee2e2" stroke="black" d="M82.88,-668C82.88,-668 52.88,-668 52.88,-668 46.88,-668 40.88,-662 40.88,-656 40.88,-656 40.88,-644 40.88,-644 40.88,-638 46.88,-632 52.88,-632 52.88,-632 82.88,-632 82.88,-632 88.88,-632 94.88,-638 94.88,-644 94.88,-644 94.88,-656 94.88,-656 94.88,-662 88.88,-668 82.88,-668"/>
<text xml:space="preserve" text-anchor="middle" x="67.88" y="-651.55" font-family="Helvetica,sans-Serif" font-size="11.00">users</text>
<text xml:space="preserve" text-anchor="middle" x="67.88" y="-639.55" font-family="Helvetica,sans-Serif" font-size="11.00">(8 cols)</text>
</g>
<!-- groups -->
<g id="node15" class="node">
<title>groups</title>
<path fill="#fee2e2" stroke="black" d="M317.62,-729C317.62,-729 287.62,-729 287.62,-729 281.62,-729 275.62,-723 275.62,-717 275.62,-717 275.62,-705 275.62,-705 275.62,-699 281.62,-693 287.62,-693 287.62,-693 317.62,-693 317.62,-693 323.62,-693 329.62,-699 329.62,-705 329.62,-705 329.62,-717 329.62,-717 329.62,-723 323.62,-729 317.62,-729"/>
<text xml:space="preserve" text-anchor="middle" x="302.62" y="-712.55" font-family="Helvetica,sans-Serif" font-size="11.00">groups</text>
<text xml:space="preserve" text-anchor="middle" x="302.62" y="-700.55" font-family="Helvetica,sans-Serif" font-size="11.00">(7 cols)</text>
</g>
<!-- group_members -->
<g id="node16" class="node">
<title>group_members</title>
<path fill="#fee2e2" stroke="black" d="M103.25,-729C103.25,-729 32.5,-729 32.5,-729 26.5,-729 20.5,-723 20.5,-717 20.5,-717 20.5,-705 20.5,-705 20.5,-699 26.5,-693 32.5,-693 32.5,-693 103.25,-693 103.25,-693 109.25,-693 115.25,-699 115.25,-705 115.25,-705 115.25,-717 115.25,-717 115.25,-723 109.25,-729 103.25,-729"/>
<text xml:space="preserve" text-anchor="middle" x="67.88" y="-712.55" font-family="Helvetica,sans-Serif" font-size="11.00">group_members</text>
<text xml:space="preserve" text-anchor="middle" x="67.88" y="-700.55" font-family="Helvetica,sans-Serif" font-size="11.00">(6 cols)</text>
</g>
<!-- group_members&#45;&gt;groups -->
<g id="edge2" class="edge">
<title>group_members&#45;&gt;groups</title>
<path fill="none" stroke="#6b7280" d="M115.7,-711C160.34,-711 226.56,-711 266.75,-711"/>
<polygon fill="#6b7280" stroke="#6b7280" points="266.64,-713.45 273.64,-711 266.64,-708.55 266.64,-713.45"/>
<text xml:space="preserve" text-anchor="middle" x="191.62" y="-712.4" font-family="Helvetica,sans-Serif" font-size="8.00">group_id</text>
</g>
</g>
</svg>
